<svg width="132" height="42" viewBox="0 0 132 42" fill="none" xmlns="http://www.w3.org/2000/svg">
<path d="M1.00586 0.79126H116.149C124.158 0.79126 130.649 7.28313 130.649 15.2913V41.4652H15.5059C7.49773 41.4652 1.00586 34.9734 1.00586 26.9652V0.79126Z" fill="black" stroke="#ACACAC"/>
<path d="M51.2124 23.9544V33.514H48.6778V23.9544H51.2124Z" fill="white"/>
<path d="M51.2124 20.5077V22.8143H48.6778V20.5077H51.2124Z" fill="white"/>
<path d="M43.2392 25.8049C42.3914 25.8049 41.8096 26.1645 41.4939 26.8837C41.3302 27.2637 41.2483 27.749 41.2483 28.3395V33.514H38.7576V23.9719H41.1694V25.3664C41.491 24.8753 41.795 24.5215 42.0815 24.3052C42.596 23.9193 43.2479 23.7264 44.0373 23.7264C45.0254 23.7264 45.8322 23.9866 46.4578 24.5069C47.0893 25.0214 47.405 25.878 47.405 27.0766V33.514H44.8441V27.6993C44.8441 27.1965 44.7769 26.8106 44.6424 26.5416C44.3968 26.0505 43.9291 25.8049 43.2392 25.8049Z" fill="white"/>
<path d="M58.2735 27.3836H60.8344C60.694 26.0212 60.2409 25.0711 59.475 24.5332C58.7149 23.9953 57.7355 23.7264 56.5369 23.7264C55.1279 23.7264 54.0228 24.1824 53.2218 25.0945C52.4208 26.0066 52.0203 27.2842 52.0203 28.9271C52.0203 30.383 52.3828 31.567 53.1078 32.4791C53.8328 33.3912 54.9641 33.8472 56.5019 33.8472C58.0396 33.8472 59.2002 33.3005 59.9836 32.2072C60.4748 31.529 60.7496 30.8098 60.8081 30.0497H58.2559C58.2033 30.5525 58.0542 30.9618 57.8086 31.2775C57.5631 31.5933 57.1479 31.7511 56.5633 31.7511C55.7389 31.7511 55.1776 31.3536 54.8794 30.5584C54.7157 30.1316 54.6338 29.5673 54.6338 28.8657C54.6338 28.129 54.7157 27.5385 54.8794 27.0941C55.1893 26.258 55.7652 25.84 56.6071 25.84C57.1976 25.84 57.6332 26.0329 57.9139 26.4188C58.1068 26.7053 58.2267 27.0269 58.2735 27.3836Z" fill="white"/>
<path d="M70.1231 27.901V33.514H67.571V27.6993C67.571 27.1848 67.4833 26.7696 67.3078 26.4539C67.0798 26.0096 66.6472 25.7874 66.0099 25.7874C65.3492 25.7874 64.8463 26.0096 64.5014 26.4539C64.1623 26.8924 63.9927 27.521 63.9927 28.3395V33.514H61.502V20.6305H63.9927V25.1998C64.3552 24.6443 64.7732 24.2584 65.2468 24.0421C65.7263 23.8199 66.2291 23.7088 66.7553 23.7088C67.3459 23.7088 67.8808 23.8111 68.3603 24.0158C68.8456 24.2204 69.2431 24.5332 69.553 24.9542C69.8161 25.3109 69.9769 25.6792 70.0354 26.0593C70.0939 26.4334 70.1231 27.0474 70.1231 27.901Z" fill="white"/>
<path d="M75.7634 33.6017V31.7336C75.6816 31.7394 75.5968 31.7453 75.5091 31.7511H75.2723C74.7636 31.7511 74.4596 31.7044 74.3602 31.6108C74.2608 31.5114 74.2111 31.2658 74.2111 30.8741V25.8225H75.7634V24.0421H74.2111V21.3759H71.7379V24.0421H70.4048V25.8225H71.7379V31.7073C71.7379 32.3037 71.8782 32.7451 72.1588 33.0316C72.5915 33.4818 73.3984 33.6864 74.5794 33.6455L75.7634 33.6017Z" fill="white"/>
<path d="M80.9383 24.2024H78.199L81.5461 33.5333H84.1228L87.4871 24.2024H84.8676L82.8816 31.085L80.9383 24.2024Z" fill="white"/>
<path d="M101.122 26.0084C100.294 26.0084 99.7266 26.3594 99.4184 27.0614C99.2586 27.4323 99.1787 27.906 99.1787 28.4824V33.5331H96.7475V24.2193H99.1016V25.5804C99.4155 25.101 99.7123 24.7558 99.9919 24.5446C100.494 24.1679 101.13 23.9796 101.901 23.9796C102.865 23.9796 103.653 24.2336 104.264 24.7415C104.88 25.2437 105.188 26.0798 105.188 27.2497V33.5331H102.688V27.8575C102.688 27.3667 102.623 26.99 102.492 26.7275C102.252 26.2481 101.795 26.0084 101.122 26.0084Z" fill="white"/>
<path fill-rule="evenodd" clip-rule="evenodd" d="M91.5555 24.007L91.4954 24.0072C90.3561 24.0172 89.5164 24.3115 88.7873 24.8276C88.3297 25.1489 87.9066 25.6087 87.6158 26.222C87.2268 26.9983 87.0322 27.9521 87.0322 29.0833C87.0322 30.5044 87.3861 31.66 88.0937 32.5503C88.8014 33.4406 89.9057 33.8857 91.4066 33.8857C91.4373 33.8857 91.4678 33.8855 91.4982 33.8851C91.5285 33.8855 91.559 33.8857 91.5897 33.8857C93.0906 33.8857 94.1949 33.4406 94.9026 32.5503C95.6103 31.66 95.9641 30.5044 95.9641 29.0833C95.9641 27.4797 95.5732 26.2327 94.7913 25.3424C94.0095 24.4521 92.9309 24.007 91.5555 24.007ZM89.8229 27.2942C90.124 26.4818 90.6824 26.0737 91.4982 26.0701C92.3139 26.0737 92.8723 26.4818 93.1734 27.2942C93.3332 27.7279 93.4131 28.3043 93.4131 29.0234C93.4131 29.7082 93.3332 30.259 93.1734 30.6756C92.9264 31.3342 92.4944 31.7134 91.8775 31.8131C91.7517 31.8297 91.6226 31.8385 91.4947 31.8397C91.4292 31.8392 91.3646 31.8374 91.3013 31.8341C90.5864 31.7835 90.0936 31.3974 89.8229 30.6756C89.6631 30.259 89.5832 29.7082 89.5832 29.0234C89.5832 28.3043 89.6631 27.7279 89.8229 27.2942Z" fill="white"/>
<path d="M117.813 20.6139V22.8133H119.406V31.3478H117.813V33.5472H123.498V31.3478H122.09V22.8133H123.498V20.6139H117.813Z" fill="white"/>
<path d="M114.435 33.4815L110.818 27.7362V33.4815H108.167V20.5786H110.818V26.1886L114.474 20.5786H117.55L113.371 26.7883L117.55 33.4815H114.435Z" fill="white"/>
<path d="M51.2406 10.4996C51.2534 10.1369 51.3155 9.87126 51.4269 9.70284C51.6276 9.40485 52.0145 9.25586 52.5877 9.25586C52.6418 9.25586 52.6975 9.25748 52.7549 9.26072C52.8122 9.26396 52.8775 9.26882 52.9507 9.27529V10.0721C52.8615 10.0656 52.7963 10.0624 52.7549 10.0624C52.7167 10.0591 52.68 10.0575 52.645 10.0575C52.3839 10.0575 52.2278 10.1271 52.1769 10.2664C52.1259 10.4025 52.1005 10.7523 52.1005 11.3158H52.9507V12.0057H52.0909V16.4949H51.2406V12.0057H50.8186V12.1223C50.7676 12.1126 50.7198 12.1061 50.6753 12.1029C50.6339 12.0997 50.5877 12.0981 50.5367 12.0981C50.1036 12.0981 49.7709 12.2406 49.5384 12.5256C49.3059 12.8074 49.1897 13.1329 49.1897 13.5021V16.4949H48.3299V11.2915H49.1467V12.1904C49.2136 12.0155 49.3776 11.8033 49.6387 11.5539C49.8998 11.3013 50.2008 11.1749 50.5415 11.1749C50.5574 11.1749 50.5845 11.1766 50.6227 11.1798C50.6609 11.183 50.7262 11.1895 50.8186 11.1992V11.3158H51.2406V10.4996Z" fill="white"/>
<path d="M38.6153 9.35789L40.6311 15.4358L42.623 9.35789H43.6882L41.1279 16.4949H40.12L37.5645 9.35789H38.6153Z" fill="white"/>
<path fill-rule="evenodd" clip-rule="evenodd" d="M45.529 11.1749C45.892 11.1749 46.2439 11.2624 46.5847 11.4373C46.9254 11.609 47.1849 11.8325 47.3633 12.1078C47.5352 12.3701 47.6499 12.6762 47.7072 13.026C47.7581 13.2657 47.7836 13.6479 47.7836 14.1726H44.0339C44.0498 14.7006 44.1724 15.1249 44.4017 15.4455C44.631 15.7629 44.986 15.9217 45.4669 15.9217C45.9159 15.9217 46.2742 15.771 46.5417 15.4698C46.6945 15.2949 46.8028 15.0925 46.8665 14.8625H47.712C47.6897 15.0536 47.6148 15.2674 47.4875 15.5038C47.3633 15.737 47.2231 15.9281 47.0671 16.0771C46.806 16.3362 46.4828 16.5111 46.0974 16.6018C45.8904 16.6537 45.6564 16.6796 45.3952 16.6796C44.7583 16.6796 44.2186 16.4447 43.7759 15.9751C43.3333 15.5022 43.112 14.8415 43.112 13.9928C43.112 13.1572 43.3349 12.4786 43.7807 11.9572C44.2265 11.4357 44.8093 11.1749 45.529 11.1749ZM46.8999 13.4779C46.8649 13.0989 46.7837 12.796 46.6563 12.5693C46.4207 12.1483 46.0274 11.9377 45.4765 11.9377C45.0816 11.9377 44.7504 12.0835 44.4829 12.375C44.2154 12.6633 44.0737 13.0309 44.0578 13.4779H46.8999Z" fill="white"/>
<path fill-rule="evenodd" clip-rule="evenodd" d="M56.3487 13.0892C56.2818 13.2317 56.1497 13.3159 55.9522 13.3418L54.5813 13.5167C54.1004 13.5783 53.7119 13.7418 53.4158 14.0074C53.1196 14.273 52.9715 14.6471 52.9715 15.1297C52.9715 15.5702 53.1212 15.9378 53.4206 16.2326C53.7231 16.5241 54.1116 16.6699 54.5861 16.6699C54.981 16.6699 55.3424 16.584 55.6704 16.4124C55.9984 16.2407 56.25 16.0383 56.4251 15.805C56.4538 16.0123 56.5031 16.1727 56.5732 16.286C56.7069 16.4998 56.9219 16.6067 57.2181 16.6067C57.3391 16.6067 57.4346 16.6018 57.5047 16.5921C57.5747 16.5824 57.6766 16.5581 57.8104 16.5192V15.8731C57.7562 15.8828 57.7053 15.8909 57.6575 15.8974C57.6098 15.9006 57.5668 15.9022 57.5285 15.9022C57.4107 15.9022 57.3327 15.8747 57.2945 15.8196C57.2595 15.7646 57.2419 15.6917 57.2419 15.601V12.6033C57.2419 12.111 57.0556 11.7482 56.6831 11.515C56.3073 11.2818 55.8185 11.1652 55.2166 11.1652C54.6975 11.1652 54.2406 11.2916 53.8457 11.5442C53.454 11.7936 53.2502 12.2389 53.2343 12.8803H54.0367C54.0686 12.6114 54.1371 12.409 54.2421 12.273C54.43 12.0268 54.7485 11.9037 55.1975 11.9037C55.586 11.9037 55.8838 11.9717 56.0907 12.1078C56.3009 12.2406 56.406 12.456 56.406 12.7539C56.406 12.8997 56.3869 13.0114 56.3487 13.0892ZM54.1418 15.7079C53.9603 15.5621 53.8696 15.3629 53.8696 15.1103C53.8696 14.7767 54.0017 14.5338 54.266 14.3815C54.4221 14.2908 54.6561 14.2244 54.9682 14.1823L55.4889 14.1143C55.6481 14.0949 55.8105 14.0625 55.9761 14.0171C56.1417 13.9718 56.277 13.9151 56.3821 13.8471V14.5516C56.3821 15.0892 56.1433 15.4763 55.6656 15.7127C55.3822 15.8553 55.0892 15.9265 54.7867 15.9265C54.5383 15.9265 54.3234 15.8536 54.1418 15.7079Z" fill="white"/>
<path d="M58.6289 14.8625C58.6544 15.154 58.726 15.3775 58.8439 15.533C59.0604 15.8148 59.4362 15.9557 59.9712 15.9557C60.2896 15.9557 60.5699 15.886 60.8119 15.7467C61.0539 15.6042 61.1749 15.3856 61.1749 15.0909C61.1749 14.8674 61.0778 14.6973 60.8835 14.5807C60.7593 14.5095 60.5141 14.4269 60.1479 14.3329L59.4648 14.158C59.0286 14.0479 58.7069 13.9248 58.4999 13.7888C58.1305 13.5523 57.9458 13.2252 57.9458 12.8074C57.9458 12.3151 58.1194 11.9167 58.4665 11.6122C58.8168 11.3077 59.2865 11.1555 59.8756 11.1555C60.6463 11.1555 61.202 11.3855 61.5427 11.8454C61.7561 12.1369 61.8596 12.4511 61.8532 12.788H61.0412C61.0252 12.5904 60.9568 12.4106 60.8358 12.2487C60.6383 12.0187 60.296 11.9037 59.8088 11.9037C59.484 11.9037 59.2372 11.9669 59.0684 12.0932C58.9028 12.2195 58.82 12.3863 58.82 12.5936C58.82 12.8203 58.9299 13.0017 59.1496 13.1378C59.277 13.2187 59.4648 13.29 59.7132 13.3515L60.2817 13.4924C60.8995 13.6447 61.3134 13.792 61.5236 13.9345C61.858 14.158 62.0252 14.5095 62.0252 14.9888C62.0252 15.452 61.8516 15.852 61.5045 16.1889C61.1606 16.5257 60.6351 16.6941 59.9282 16.6941C59.1671 16.6941 58.6273 16.5192 58.3089 16.1694C57.9936 15.8164 57.8248 15.3807 57.8025 14.8625H58.6289Z" fill="white"/>
<path d="M63.1972 15.533C63.0794 15.3775 63.0077 15.154 62.9822 14.8625H62.1559C62.1782 15.3807 62.3469 15.8164 62.6622 16.1694C62.9807 16.5192 63.5204 16.6941 64.2815 16.6941C64.9885 16.6941 65.5139 16.5257 65.8578 16.1889C66.205 15.852 66.3785 15.452 66.3785 14.9888C66.3785 14.5095 66.2113 14.158 65.8769 13.9345C65.6668 13.792 65.2528 13.6447 64.635 13.4924L64.0666 13.3515C63.8182 13.29 63.6303 13.2187 63.5029 13.1378C63.2832 13.0017 63.1733 12.8203 63.1733 12.5936C63.1733 12.3863 63.2561 12.2195 63.4217 12.0932C63.5905 11.9669 63.8373 11.9037 64.1621 11.9037C64.6493 11.9037 64.9917 12.0187 65.1891 12.2487C65.3101 12.4106 65.3786 12.5904 65.3945 12.788H66.2065C66.2129 12.4511 66.1094 12.1369 65.8961 11.8454C65.5553 11.3855 64.9996 11.1555 64.229 11.1555C63.6398 11.1555 63.1701 11.3077 62.8198 11.6122C62.4727 11.9167 62.2992 12.3151 62.2992 12.8074C62.2992 13.2252 62.4839 13.5523 62.8533 13.7888C63.0603 13.9248 63.3819 14.0479 63.8182 14.158L64.5012 14.3329C64.8675 14.4269 65.1127 14.5095 65.2369 14.5807C65.4311 14.6973 65.5282 14.8674 65.5282 15.0909C65.5282 15.3856 65.4072 15.6042 65.1652 15.7467C64.9232 15.886 64.643 15.9557 64.3245 15.9557C63.7895 15.9557 63.4137 15.8148 63.1972 15.533Z" fill="white"/>
<path d="M66.9964 9.83887H67.8658V11.2915H68.6826V12.0057H67.8658V15.4018C67.8658 15.5832 67.9263 15.7046 68.0473 15.7662C68.1142 15.8018 68.2256 15.8196 68.3817 15.8196H68.5154C68.5632 15.8164 68.6189 15.8115 68.6826 15.805V16.4949C68.5839 16.5241 68.4804 16.5452 68.3721 16.5581C68.267 16.5711 68.1524 16.5775 68.0282 16.5775C67.627 16.5775 67.3547 16.4739 67.2114 16.2666C67.0681 16.0561 66.9964 15.784 66.9964 15.4504V12.0057H66.3038V11.2915H66.9964V9.83887Z" fill="white"/>
<path d="M70.8606 12.1768L71.9376 15.5168L73.0636 12.1768H73.9376L72.3292 16.5137H71.5125L69.9399 12.1768H70.8606Z" fill="white"/>
<path fill-rule="evenodd" clip-rule="evenodd" d="M74.1704 16.061C73.8237 15.6541 73.6528 15.1113 73.6528 14.4382C73.6528 13.7179 73.8326 13.1383 74.1974 12.705C74.5631 12.2706 75.0547 12.0542 75.667 12.0542C76.2164 12.0542 76.6829 12.241 77.0634 12.6144C77.4468 12.9908 77.6345 13.541 77.6345 14.2563C77.6345 14.9474 77.4691 15.5229 77.1348 15.979C76.7964 16.4407 76.2724 16.668 75.5737 16.668C74.9878 16.668 74.5181 16.4663 74.1704 16.061ZM76.5477 15.449C76.7178 15.0977 76.8033 14.7071 76.8033 14.276C76.8033 13.8851 76.7417 13.5718 76.6219 13.3332C76.5273 13.1458 76.3995 13.0072 76.2391 12.915C76.0785 12.8227 75.882 12.7753 75.6476 12.7753C75.2351 12.7753 74.9416 12.934 74.7573 13.249C74.5682 13.5721 74.4724 13.9639 74.4724 14.4264C74.4724 14.8702 74.568 15.236 74.7561 15.5267C74.9396 15.8103 75.2305 15.9548 75.6398 15.9548C75.8656 15.9548 76.0521 15.9115 76.2017 15.8277C76.3508 15.7441 76.4662 15.6186 76.5477 15.449Z" fill="white"/>
<path d="M77.8928 12.1768H78.6579V12.6905C78.8324 12.4926 79.017 12.3449 79.2121 12.2492C79.44 12.1374 79.6927 12.0819 79.9692 12.0819C80.5735 12.0819 80.9938 12.2976 81.212 12.7387C81.3311 12.9782 81.3883 13.3155 81.3883 13.7459V16.5137H80.5766V13.7934C80.5766 13.5391 80.5395 13.3389 80.4686 13.1898C80.4102 13.066 80.3291 12.9751 80.226 12.9148C80.1226 12.8544 79.9937 12.8228 79.837 12.8228C79.674 12.8228 79.5435 12.8397 79.444 12.8718C79.2626 12.9266 79.1012 13.0368 78.9614 13.2044C78.8488 13.3392 78.7764 13.4773 78.7422 13.6189C78.7098 13.7611 78.6929 13.9689 78.6929 14.2444V16.5137H77.8928V12.1768Z" fill="white"/>
<path d="M110.373 9.33362H109.513V16.495H110.373V13.7354C110.373 13.0422 110.518 12.571 110.808 12.3216C111.097 12.0722 111.421 11.9475 111.777 11.9475C112.207 11.9475 112.5 12.09 112.656 12.375C112.752 12.5532 112.799 12.8333 112.799 13.2155V16.495H113.683V13.1572C113.683 12.6455 113.611 12.2454 113.468 11.9572C113.204 11.4292 112.701 11.1653 111.959 11.1653C111.545 11.1653 111.199 11.2576 110.922 11.4422C110.76 11.5491 110.577 11.7337 110.373 11.996V9.33362Z" fill="white"/>
<path d="M84.8326 9.35791H83.4712V16.495H84.3788V12.2827C84.3788 12.1143 84.374 11.8519 84.3644 11.4956C84.3581 11.1361 84.3549 10.8689 84.3549 10.694V10.4754L86.3707 16.495H87.3117L89.3131 10.4754C89.3131 10.8608 89.31 11.2219 89.3036 11.5588C89.2972 11.8956 89.294 12.1369 89.294 12.2827V16.495H90.1968V9.35791H88.8498L86.8483 15.3921L84.8326 9.35791Z" fill="white"/>
<path fill-rule="evenodd" clip-rule="evenodd" d="M94.1776 11.4373C93.8368 11.2624 93.485 11.175 93.1219 11.175C92.4022 11.175 91.8195 11.4357 91.3736 11.9572C90.9278 12.4787 90.7049 13.1572 90.7049 13.9929C90.7049 14.8415 90.9262 15.5022 91.3689 15.9751C91.8115 16.4448 92.3513 16.6796 92.9882 16.6796C93.2493 16.6796 93.4834 16.6537 93.6904 16.6019C94.0757 16.5112 94.3989 16.3363 94.66 16.0771C94.8161 15.9282 94.9562 15.7371 95.0804 15.5038C95.2078 15.2674 95.2826 15.0536 95.3049 14.8625H94.4594C94.3957 15.0925 94.2874 15.2949 94.1346 15.4698C93.8671 15.7711 93.5088 15.9217 93.0598 15.9217C92.579 15.9217 92.2239 15.763 91.9946 15.4455C91.7653 15.1249 91.6427 14.7006 91.6268 14.1726H95.3765C95.3765 13.6479 95.3511 13.2657 95.3001 13.026C95.2428 12.6762 95.1282 12.3701 94.9562 12.1078C94.7779 11.8325 94.5183 11.609 94.1776 11.4373ZM94.2492 12.5693C94.3766 12.7961 94.4578 13.0989 94.4928 13.4779H91.6507C91.6666 13.0309 91.8083 12.6633 92.0758 12.375C92.3433 12.0835 92.6745 11.9377 93.0694 11.9377C93.6203 11.9377 94.0136 12.1483 94.2492 12.5693Z" fill="white"/>
<path d="M95.8989 11.2916H96.7157V12.0301C96.9578 11.7256 97.2141 11.507 97.4848 11.3742C97.7555 11.2414 98.0564 11.175 98.3876 11.175C99.1137 11.175 99.6041 11.4325 99.8588 11.9475C99.999 12.2293 100.069 12.6325 100.069 13.1572V16.495H99.1949V13.2155C99.1949 12.8981 99.1487 12.6422 99.0564 12.4479C98.9035 12.124 98.6264 11.962 98.2252 11.962C98.0214 11.962 97.8542 11.9831 97.7236 12.0252C97.488 12.0965 97.281 12.239 97.1027 12.4527C96.9594 12.6244 96.8654 12.8026 96.8208 12.9872C96.7794 13.1686 96.7587 13.4293 96.7587 13.7694V16.495H95.8989V11.2916Z" fill="white"/>
<path d="M101.532 15.533C101.415 15.3775 101.343 15.154 101.317 14.8625H100.491C100.513 15.3808 100.682 15.8164 100.997 16.1695C101.316 16.5193 101.856 16.6942 102.617 16.6942C103.324 16.6942 103.849 16.5257 104.193 16.1889C104.54 15.852 104.714 15.452 104.714 14.9889C104.714 14.5095 104.547 14.1581 104.212 13.9346C104.002 13.7921 103.588 13.6447 102.97 13.4925L102.402 13.3516C102.153 13.29 101.966 13.2188 101.838 13.1378C101.618 13.0017 101.509 12.8204 101.509 12.5936C101.509 12.3863 101.591 12.2195 101.757 12.0932C101.926 11.9669 102.173 11.9037 102.497 11.9037C102.985 11.9037 103.327 12.0187 103.524 12.2487C103.645 12.4106 103.714 12.5904 103.73 12.788H104.542C104.548 12.4511 104.445 12.1369 104.231 11.8454C103.891 11.3855 103.335 11.1555 102.564 11.1555C101.975 11.1555 101.505 11.3078 101.155 11.6122C100.808 11.9167 100.634 12.3151 100.634 12.8074C100.634 13.2252 100.819 13.5524 101.188 13.7888C101.395 13.9249 101.717 14.0479 102.153 14.1581L102.836 14.333C103.203 14.4269 103.448 14.5095 103.572 14.5807C103.766 14.6973 103.863 14.8674 103.863 15.0909C103.863 15.3856 103.742 15.6043 103.5 15.7468C103.258 15.886 102.978 15.9557 102.66 15.9557C102.125 15.9557 101.749 15.8148 101.532 15.533Z" fill="white"/>
<path d="M107.132 11.141C107.709 11.141 108.177 11.2835 108.537 11.5685C108.9 11.8535 109.118 12.3442 109.191 13.0406H108.355C108.304 12.72 108.188 12.4544 108.007 12.2438C107.825 12.0301 107.534 11.9232 107.132 11.9232C106.585 11.9232 106.193 12.1952 105.957 12.7394C105.805 13.0924 105.728 13.5281 105.728 14.0463C105.728 14.5678 105.836 15.0067 106.053 15.363C106.269 15.7192 106.61 15.8974 107.075 15.8974C107.432 15.8974 107.714 15.7873 107.921 15.567C108.131 15.3435 108.276 15.0391 108.355 14.6536H109.191C109.096 15.3435 108.857 15.8488 108.475 16.1695C108.093 16.4869 107.604 16.6456 107.008 16.6456C106.34 16.6456 105.806 16.3978 105.408 15.9022C105.01 15.4034 104.811 14.7816 104.811 14.0366C104.811 13.1232 105.029 12.4123 105.465 11.9037C105.902 11.3952 106.457 11.141 107.132 11.141Z" fill="white"/>
<path fill-rule="evenodd" clip-rule="evenodd" d="M116.551 11.175C116.914 11.175 117.266 11.2624 117.607 11.4373C117.947 11.609 118.207 11.8325 118.385 12.1078C118.557 12.3701 118.672 12.6762 118.729 13.026C118.78 13.2657 118.805 13.6479 118.805 14.1726H115.056C115.072 14.7006 115.194 15.1249 115.424 15.4455C115.653 15.763 116.008 15.9217 116.489 15.9217C116.938 15.9217 117.296 15.7711 117.564 15.4698C117.716 15.2949 117.825 15.0925 117.888 14.8625H118.734C118.712 15.0536 118.637 15.2674 118.509 15.5038C118.385 15.7371 118.245 15.9282 118.089 16.0771C117.828 16.3363 117.505 16.5112 117.119 16.6019C116.912 16.6537 116.678 16.6796 116.417 16.6796C115.78 16.6796 115.24 16.4448 114.798 15.9751C114.355 15.5022 114.134 14.8415 114.134 13.9929C114.134 13.1572 114.357 12.4787 114.803 11.9572C115.248 11.4357 115.831 11.175 116.551 11.175ZM117.922 13.4779C117.887 13.0989 117.806 12.7961 117.678 12.5693C117.443 12.1483 117.049 11.9377 116.498 11.9377C116.103 11.9377 115.772 12.0835 115.505 12.375C115.237 12.6633 115.096 13.0309 115.08 13.4779H117.922Z" fill="white"/>
<path d="M120.145 11.2916H119.328V16.495H120.188V13.7694C120.188 13.4293 120.208 13.1686 120.25 12.9872C120.294 12.8026 120.388 12.6244 120.532 12.4527C120.71 12.239 120.917 12.0965 121.153 12.0252C121.283 11.9831 121.45 11.962 121.654 11.962C122.055 11.962 122.332 12.124 122.485 12.4479C122.578 12.6422 122.624 12.8981 122.624 13.2155V16.495H123.498V13.1572C123.498 12.6325 123.428 12.2293 123.288 11.9475C123.033 11.4325 122.543 11.175 121.817 11.175C121.485 11.175 121.184 11.2414 120.914 11.3742C120.643 11.507 120.387 11.7256 120.145 12.0301V11.2916Z" fill="white"/>
<path d="M15.6182 24.2367C19.1313 27.0816 24.1555 27.0816 27.6686 24.2367L26.3103 22.5593C23.5892 24.7628 19.6976 24.7628 16.9765 22.5593L15.6182 24.2367Z" fill="white"/>
<path d="M17.0811 20.5431V17.6272H19.2395V20.5431H17.0811Z" fill="white"/>
<path d="M23.7788 17.6272V20.5431H25.9372V17.6272H23.7788Z" fill="white"/>
<path fill-rule="evenodd" clip-rule="evenodd" d="M32.8888 21.5431C32.8888 27.9806 27.6702 33.1992 21.2327 33.1992C14.7953 33.1992 9.57666 27.9806 9.57666 21.5431C9.57666 15.1057 14.7953 9.88708 21.2327 9.88708C27.6702 9.88708 32.8888 15.1057 32.8888 21.5431ZM30.7304 21.5431C30.7304 26.7885 26.4781 31.0408 21.2327 31.0408C15.9873 31.0408 11.7351 26.7885 11.7351 21.5431C11.7351 16.2977 15.9873 12.0455 21.2327 12.0455C26.4781 12.0455 30.7304 16.2977 30.7304 21.5431Z" fill="white"/>
</svg>
