<svg width="132" height="42" viewBox="0 0 132 42" fill="none" xmlns="http://www.w3.org/2000/svg">
<path d="M1.00293 0.720215H116.146C124.155 0.720215 130.646 7.21209 130.646 15.2202V41.3942H15.5029C7.4948 41.3942 1.00293 34.9023 1.00293 26.8942V0.720215Z" fill="black" stroke="#ACACAC"/>
<path d="M95.465 19.0898H101.149V21.2893H99.7421V29.8237H101.149V32.0232H95.465V29.8237H97.0578V21.2893H95.465V19.0898Z" fill="white"/>
<path fill-rule="evenodd" clip-rule="evenodd" d="M109.347 19.0898H106.294L101.68 32.0202H104.504L105.399 29.3622H110.162L110.996 32.0202H113.926L109.347 19.0898ZM109.408 27.134H106.127L107.794 22.0461L109.408 27.134Z" fill="white"/>
<path fill-rule="evenodd" clip-rule="evenodd" d="M57.5399 23.4632C58.3554 24.4855 58.7631 25.6939 58.7631 27.0884C58.7631 28.5066 58.3554 29.7209 57.5399 30.7313C56.7245 31.7359 55.4865 32.2382 53.8261 32.2382C52.1657 32.2382 50.9277 31.7359 50.1123 30.7313C49.2968 29.7209 48.8891 28.5066 48.8891 27.0884C48.8891 25.6939 49.2968 24.4855 50.1123 23.4632C50.9277 22.4409 52.1657 21.9298 53.8261 21.9298C55.4865 21.9298 56.7245 22.4409 57.5399 23.4632ZM53.8172 24.0659C53.0786 24.0659 52.5084 24.3289 52.1066 24.8548C51.7107 25.3748 51.5127 26.1193 51.5127 27.0884C51.5127 28.0575 51.7107 28.805 52.1066 29.3309C52.5084 29.8568 53.0786 30.1198 53.8172 30.1198C54.5559 30.1198 55.1231 29.8568 55.519 29.3309C55.915 28.805 56.1129 28.0575 56.1129 27.0884C56.1129 26.1193 55.915 25.3748 55.519 24.8548C55.1231 24.3289 54.5559 24.0659 53.8172 24.0659Z" fill="white"/>
<path d="M43.5681 24.1102C42.7113 24.1102 42.1233 24.4737 41.8043 25.2005C41.6388 25.5846 41.5561 26.075 41.5561 26.6718V31.9013H39.0388V22.2578H41.4763V23.6671C41.8013 23.1707 42.1086 22.8132 42.3981 22.5946C42.9181 22.2046 43.577 22.0096 44.3747 22.0096C45.3733 22.0096 46.1888 22.2725 46.821 22.7984C47.4592 23.3184 47.7783 24.1841 47.7783 25.3955V31.9013H45.1901V26.0248C45.1901 25.5166 45.1222 25.1266 44.9863 24.8548C44.7381 24.3584 44.2654 24.1102 43.5681 24.1102Z" fill="white"/>
<path fill-rule="evenodd" clip-rule="evenodd" d="M73.6241 26.9466C73.6241 25.3334 73.2341 24.1102 72.4542 23.2771C71.6683 22.4439 70.711 22.0273 69.5824 22.0273C68.8083 22.0273 68.1405 22.243 67.5792 22.6743C67.2719 22.9166 66.9824 23.2475 66.7106 23.6671V22.24H64.2908V35.7038H66.7903V30.6693C67.0562 31.077 67.3281 31.3872 67.6058 31.6C68.114 31.9841 68.7521 32.1761 69.5203 32.1761C70.7258 32.1761 71.7096 31.73 72.4719 30.8377C73.2401 29.9454 73.6241 28.6484 73.6241 26.9466ZM70.5042 25.0941C70.8469 25.6673 71.0183 26.3261 71.0183 27.0707C71.0183 27.9748 70.8321 28.6986 70.4599 29.2423C70.0935 29.7859 69.5587 30.0577 68.8555 30.0577C68.371 30.0577 67.9515 29.9248 67.5969 29.6588C67.0001 29.2039 66.7017 28.415 66.7017 27.2923C66.7017 26.5832 66.7903 25.9982 66.9676 25.5373C67.3103 24.6687 67.9396 24.2343 68.8555 24.2343C69.6178 24.2343 70.1674 24.5209 70.5042 25.0941Z" fill="white"/>
<path fill-rule="evenodd" clip-rule="evenodd" d="M82.8806 23.4632C83.696 24.4855 84.1037 25.6939 84.1037 27.0884C84.1037 28.5066 83.696 29.7209 82.8806 30.7313C82.0651 31.7359 80.8272 32.2382 79.1667 32.2382C77.5063 32.2382 76.2683 31.7359 75.4529 30.7313C74.6374 29.7209 74.2297 28.5066 74.2297 27.0884C74.2297 25.6939 74.6374 24.4855 75.4529 23.4632C76.2683 22.4409 77.5063 21.9298 79.1667 21.9298C80.8272 21.9298 82.0651 22.4409 82.8806 23.4632ZM79.1579 24.0659C78.4192 24.0659 77.849 24.3289 77.4472 24.8548C77.0513 25.3748 76.8533 26.1193 76.8533 27.0884C76.8533 28.0575 77.0513 28.805 77.4472 29.3309C77.849 29.8568 78.4192 30.1198 79.1579 30.1198C79.8965 30.1198 80.4638 29.8568 80.8597 29.3309C81.2556 28.805 81.4535 28.0575 81.4535 27.0884C81.4535 26.1193 81.2556 25.3748 80.8597 24.8548C80.4638 24.3289 79.8965 24.0659 79.1579 24.0659Z" fill="white"/>
<path d="M88.0952 25.5639C88.4438 24.9021 89.1263 24.5712 90.1427 24.5712C90.2195 24.5712 90.3199 24.5741 90.444 24.58C90.5681 24.5859 90.7099 24.5977 90.8695 24.6155V22.0273C90.7572 22.0214 90.6833 22.0184 90.6479 22.0184C90.6183 22.0125 90.5799 22.0096 90.5327 22.0096C89.7763 22.0096 89.1618 22.2075 88.689 22.6034C88.3995 22.8398 88.0597 23.28 87.6697 23.9241V22.24H85.2588V31.9013H87.8027V27.2834C87.8027 26.5093 87.9002 25.9361 88.0952 25.5639Z" fill="white"/>
<path d="M91.106 8.01221H90.2627V15.1736H91.106V12.414C91.106 11.7208 91.2482 11.2496 91.5324 11.0002C91.8166 10.7508 92.1337 10.6261 92.4835 10.6261C92.9052 10.6261 93.1925 10.7686 93.3456 11.0536C93.4393 11.2317 93.4861 11.5119 93.4861 11.8941V15.1736H94.3529V11.8358C94.3529 11.3241 94.2826 10.924 94.1421 10.6358C93.8828 10.1078 93.3893 9.84384 92.6615 9.84384C92.2555 9.84384 91.9166 9.93615 91.6448 10.1208C91.4855 10.2277 91.3059 10.4123 91.106 10.6746V8.01221Z" fill="white"/>
<path d="M95.8966 13.4245V9.97016H95.0345V13.5071C95.0345 13.9509 95.1048 14.3055 95.2454 14.5711C95.5046 15.0667 95.9919 15.3145 96.7072 15.3145C97.1663 15.3145 97.5568 15.1784 97.8785 14.9063C98.0409 14.7703 98.1768 14.6035 98.2861 14.4059L98.2767 15.1736H99.0732V9.97016H98.2299V12.5257C98.2299 13.0342 98.1721 13.4342 98.0565 13.7257C97.8441 14.2699 97.4443 14.542 96.8571 14.542C96.4479 14.542 96.1684 14.3865 96.0184 14.0756C95.9372 13.9071 95.8966 13.6901 95.8966 13.4245Z" fill="white"/>
<path d="M99.7888 9.97019H100.623V10.7087C100.823 10.4528 101.004 10.2666 101.166 10.15C101.444 9.95237 101.76 9.85359 102.113 9.85359C102.512 9.85359 102.834 9.95561 103.078 10.1597C103.215 10.2763 103.34 10.4479 103.453 10.6747C103.64 10.3961 103.86 10.1904 104.113 10.0576C104.366 9.9216 104.65 9.85359 104.966 9.85359C105.641 9.85359 106.1 10.1062 106.343 10.6115C106.475 10.8836 106.54 11.2496 106.54 11.7095V15.1736H105.664V11.5589C105.664 11.2123 105.58 10.9743 105.411 10.8447C105.246 10.7152 105.042 10.6504 104.802 10.6504C104.471 10.6504 104.185 10.7654 103.945 10.9953C103.707 11.2253 103.589 11.6091 103.589 12.1468V15.1736H102.731V11.7775C102.731 11.4245 102.691 11.167 102.609 11.005C102.481 10.7621 102.242 10.6407 101.892 10.6407C101.574 10.6407 101.283 10.7686 101.021 11.0245C100.762 11.2803 100.632 11.7435 100.632 12.414V15.1736H99.7888V9.97019Z" fill="white"/>
<path fill-rule="evenodd" clip-rule="evenodd" d="M110.38 11.7678C110.315 11.9103 110.185 11.9945 109.991 12.0205L108.647 12.1954C108.175 12.2569 107.794 12.4205 107.504 12.6861C107.213 12.9517 107.068 13.3258 107.068 13.8084C107.068 14.2489 107.215 14.6165 107.508 14.9112C107.805 15.2027 108.186 15.3485 108.651 15.3485C109.039 15.3485 109.393 15.2627 109.715 15.091C110.037 14.9193 110.283 14.7169 110.455 14.4837C110.483 14.691 110.532 14.8513 110.6 14.9647C110.732 15.1784 110.942 15.2853 111.233 15.2853C111.352 15.2853 111.445 15.2805 111.514 15.2708C111.583 15.261 111.683 15.2367 111.814 15.1979V14.5517C111.761 14.5614 111.711 14.5695 111.664 14.576C111.617 14.5792 111.575 14.5809 111.538 14.5809C111.422 14.5809 111.345 14.5533 111.308 14.4983C111.274 14.4432 111.256 14.3703 111.256 14.2796V11.282C111.256 10.7896 111.074 10.4269 110.708 10.1937C110.34 9.96047 109.86 9.84387 109.27 9.84387C108.761 9.84387 108.312 9.97019 107.925 10.2228C107.541 10.4722 107.341 10.9176 107.325 11.5589H108.113C108.144 11.2901 108.211 11.0876 108.314 10.9516C108.498 10.7054 108.811 10.5824 109.251 10.5824C109.632 10.5824 109.924 10.6504 110.127 10.7864C110.333 10.9192 110.436 11.1346 110.436 11.4326C110.436 11.5783 110.418 11.6901 110.38 11.7678ZM108.216 14.3865C108.038 14.2408 107.949 14.0416 107.949 13.7889C107.949 13.4553 108.078 13.2124 108.337 13.0602C108.491 12.9695 108.72 12.9031 109.026 12.861L109.537 12.7929C109.693 12.7735 109.852 12.7411 110.015 12.6958C110.177 12.6504 110.31 12.5938 110.413 12.5257V13.2302C110.413 13.7679 110.179 14.1549 109.71 14.3914C109.432 14.5339 109.145 14.6051 108.848 14.6051C108.605 14.6051 108.394 14.5323 108.216 14.3865Z" fill="white"/>
<path d="M112.163 9.97019H112.965V10.7087C113.202 10.4042 113.453 10.1856 113.719 10.0528C113.984 9.91998 114.28 9.85359 114.604 9.85359C115.317 9.85359 115.798 10.1111 116.048 10.6261C116.185 10.9079 116.254 11.3111 116.254 11.8358V15.1736H115.396V11.8941C115.396 11.5767 115.351 11.3208 115.26 11.1265C115.11 10.8026 114.839 10.6407 114.445 10.6407C114.245 10.6407 114.081 10.6617 113.953 10.7038C113.722 10.7751 113.519 10.9176 113.344 11.1314C113.204 11.303 113.111 11.4812 113.068 11.6658C113.027 11.8472 113.007 12.1079 113.007 12.448V15.1736H112.163V9.97019Z" fill="white"/>
<path fill-rule="evenodd" clip-rule="evenodd" d="M118.993 9.78906C119.025 9.78906 119.057 9.79005 119.088 9.79197C119.714 9.82152 120.215 10.0773 120.636 10.5594C121.084 11.073 121.25 11.791 121.25 12.7135C121.25 13.4659 121.045 14.094 120.636 14.5977C120.227 15.0982 119.679 15.3485 118.992 15.3485L118.959 15.3483L118.93 15.3485C118.243 15.3485 117.695 15.0982 117.286 14.5977C116.877 14.094 116.673 13.4659 116.673 12.7135C116.673 11.791 116.838 11.073 117.286 10.5594C117.684 10.1042 118.186 9.85067 118.764 9.79899C118.827 9.79249 118.893 9.78908 118.962 9.78908L118.976 9.78911L118.993 9.78906ZM117.851 11.4034C118.09 10.8592 118.424 10.5844 118.977 10.5791C119.53 10.5838 119.832 10.8586 120.072 11.4034C120.229 11.76 120.307 12.1999 120.307 12.7233C120.307 13.25 120.196 13.6932 119.974 14.0531C119.757 14.4034 119.42 14.5832 118.961 14.5924C118.503 14.5832 118.165 14.4034 117.949 14.0531C117.726 13.6932 117.615 13.25 117.615 12.7233C117.615 12.1999 117.694 11.76 117.851 11.4034Z" fill="white"/>
<path fill-rule="evenodd" clip-rule="evenodd" d="M65.7815 9.99448H66.6014V10.6844C66.7701 10.4479 66.9544 10.2649 67.1543 10.1354C67.4385 9.94104 67.7727 9.84387 68.1569 9.84387C68.7254 9.84387 69.208 10.0706 69.6046 10.5241C70.0013 10.9743 70.1997 11.6188 70.1997 12.4577C70.1997 13.5914 69.9139 14.4011 69.3423 14.8869C68.9799 15.1946 68.5583 15.3485 68.0773 15.3485C67.6993 15.3485 67.3823 15.2627 67.1262 15.091C66.9762 14.9938 66.8091 14.827 66.6248 14.5906V17.2481H65.7815V9.99448ZM67.9648 14.5857C68.3584 14.5857 68.6848 14.4157 68.944 14.0756C69.2064 13.7323 69.3376 13.2205 69.3376 12.5403C69.3376 12.1257 69.2798 11.7694 69.1642 11.4715C68.9456 10.8982 68.5458 10.6115 67.9648 10.6115C67.3807 10.6115 66.9809 10.9144 66.7654 11.52C66.6498 11.8439 66.592 12.2553 66.592 12.7541C66.592 13.1557 66.6498 13.4974 66.7654 13.7792C66.984 14.3169 67.3838 14.5857 67.9648 14.5857Z" fill="white"/>
<path d="M75.4 9.97019H76.2011V10.869C76.2667 10.6941 76.4276 10.4819 76.6837 10.2325C76.9398 9.97991 77.235 9.85359 77.5692 9.85359C77.5848 9.85359 77.6114 9.85521 77.6489 9.85845C77.6863 9.86169 77.7504 9.86816 77.841 9.87788V10.801C77.791 10.7913 77.7441 10.7848 77.7004 10.7816C77.6598 10.7783 77.6145 10.7767 77.5645 10.7767C77.1397 10.7767 76.8133 10.9192 76.5853 11.2042C76.3573 11.486 76.2433 11.8115 76.2433 12.1808V15.1736H75.4V9.97019Z" fill="white"/>
<path d="M84.9431 9.97012H84.1419V15.1735H84.9853V12.4479C84.9853 12.1078 85.0056 11.8471 85.0462 11.6657C85.0899 11.4811 85.182 11.303 85.3226 11.1313C85.4975 10.9175 85.7005 10.775 85.9317 10.7037C86.0597 10.6616 86.2237 10.6406 86.4236 10.6406C86.8172 10.6406 87.0889 10.8025 87.2389 11.1264C87.3294 11.3208 87.3747 11.5766 87.3747 11.8941V15.1735H88.2321V11.8358C88.2321 11.3111 88.1634 10.9078 88.026 10.626C87.7761 10.111 87.2951 9.85352 86.5829 9.85352C86.2581 9.85352 85.9629 9.91991 85.6974 10.0527C85.4319 10.1855 85.1805 10.4041 84.9431 10.7086V9.97012Z" fill="white"/>
<path d="M80.3173 13.4245V9.97012H79.4552V13.5071C79.4552 13.9508 79.5255 14.3055 79.666 14.5711C79.9253 15.0666 80.4125 15.3144 81.1278 15.3144C81.587 15.3144 81.9774 15.1784 82.2991 14.9063C82.4615 14.7703 82.5974 14.6035 82.7067 14.4059L82.6974 15.1735H83.4939V9.97012H82.6505V12.5257C82.6505 13.0342 82.5927 13.4342 82.4772 13.7257C82.2648 14.2698 81.865 14.5419 81.2777 14.5419C80.8686 14.5419 80.589 14.3864 80.4391 14.0755C80.3579 13.9071 80.3173 13.6901 80.3173 13.4245Z" fill="white"/>
<path d="M55.9689 9.99445H56.858V15.1736H55.9689V9.99445Z" fill="white"/>
<path d="M55.9689 8.0365H56.858V9.02762H55.9689V8.0365Z" fill="white"/>
<path d="M50.682 9.81955C51.2682 9.81955 51.7443 9.96206 52.1103 10.2471C52.4796 10.5321 52.7015 11.0228 52.7759 11.7192H51.9257C51.8739 11.3985 51.7557 11.133 51.5711 10.9224C51.3864 10.7086 51.0901 10.6018 50.682 10.6018C50.1249 10.6018 49.7265 10.8738 49.4868 11.418C49.3313 11.771 49.2536 12.2067 49.2536 12.7249C49.2536 13.2464 49.3637 13.6853 49.5839 14.0415C49.8042 14.3978 50.1508 14.576 50.6237 14.576C50.9864 14.576 51.2731 14.4658 51.4836 14.2456C51.6974 14.0221 51.8447 13.7176 51.9257 13.3322H52.7759C52.6788 14.0221 52.4359 14.5274 52.0472 14.848C51.6585 15.1655 51.1613 15.3242 50.5556 15.3242C49.8755 15.3242 49.3329 15.0764 48.9281 14.5808C48.5232 14.082 48.3207 13.4601 48.3207 12.7152C48.3207 11.8018 48.5426 11.0908 48.9864 10.5823C49.4301 10.0738 49.9953 9.81955 50.682 9.81955Z" fill="white"/>
<path d="M44.9364 14.2116C44.8165 14.0561 44.7436 13.8326 44.7177 13.5411H43.8772C43.8999 14.0594 44.0715 14.495 44.3922 14.848C44.7161 15.1979 45.2651 15.3728 46.0392 15.3728C46.7583 15.3728 47.2927 15.2043 47.6425 14.8675C47.9956 14.5306 48.1721 14.1306 48.1721 13.6674C48.1721 13.1881 48.002 12.8366 47.6619 12.6132C47.4482 12.4706 47.0271 12.3233 46.3987 12.171L45.8206 12.0301C45.568 11.9686 45.3769 11.8973 45.2473 11.8164C45.0238 11.6803 44.9121 11.499 44.9121 11.2722C44.9121 11.0649 44.9963 10.8981 45.1647 10.7718C45.3364 10.6455 45.5874 10.5823 45.9178 10.5823C46.4133 10.5823 46.7615 10.6973 46.9623 10.9273C47.0854 11.0892 47.155 11.269 47.1712 11.4666H47.9972C48.0037 11.1297 47.8984 10.8155 47.6814 10.524C47.3348 10.0641 46.7696 9.83413 45.9858 9.83413C45.3866 9.83413 44.9088 9.98636 44.5525 10.2908C44.1995 10.5953 44.023 10.9937 44.023 11.486C44.023 11.9038 44.2108 12.231 44.5865 12.4674C44.7971 12.6034 45.1242 12.7265 45.568 12.8366L46.2627 13.0116C46.6352 13.1055 46.8846 13.1881 47.0109 13.2593C47.2085 13.3759 47.3073 13.546 47.3073 13.7695C47.3073 14.0642 47.1842 14.2828 46.938 14.4254C46.6919 14.5646 46.4068 14.6343 46.0829 14.6343C45.5388 14.6343 45.1566 14.4934 44.9364 14.2116Z" fill="white"/>
<path fill-rule="evenodd" clip-rule="evenodd" d="M42.3973 10.1159C42.0508 9.94101 41.6929 9.85356 41.3236 9.85356C40.5916 9.85356 39.9989 10.1143 39.5454 10.6358C39.092 11.1572 38.8652 11.8358 38.8652 12.6715C38.8652 13.5201 39.0903 14.1808 39.5406 14.6537C39.9908 15.1234 40.5398 15.3582 41.1876 15.3582C41.4532 15.3582 41.6912 15.3323 41.9018 15.2804C42.2937 15.1898 42.6224 15.0149 42.888 14.7557C43.0467 14.6067 43.1893 14.4156 43.3156 14.1824C43.4451 13.946 43.5212 13.7322 43.5439 13.5411H42.684C42.6192 13.7711 42.5091 13.9735 42.3536 14.1484C42.0815 14.4497 41.7171 14.6003 41.2604 14.6003C40.7714 14.6003 40.4102 14.4416 40.177 14.1241C39.9438 13.8035 39.8191 13.3792 39.8029 12.8512H43.6168C43.6168 12.3265 43.5909 11.9443 43.5391 11.7046C43.4808 11.3548 43.3642 11.0487 43.1893 10.7864C43.0079 10.5111 42.7439 10.2876 42.3973 10.1159ZM42.4702 11.2479C42.5998 11.4747 42.6824 11.7775 42.718 12.1565H39.8272C39.8434 11.7095 39.9875 11.3419 40.2596 11.0536C40.5317 10.7621 40.8685 10.6163 41.2702 10.6163C41.8305 10.6163 42.2305 10.8269 42.4702 11.2479Z" fill="white"/>
<path d="M54.008 9.97016H53.1773V15.1736H54.0518V12.1808C54.0518 11.8115 54.17 11.486 54.4064 11.2042C54.6429 10.9192 54.9814 10.7767 55.4219 10.7767C55.4737 10.7767 55.5206 10.7783 55.5628 10.7815C55.6081 10.7848 55.6567 10.7912 55.7085 10.801V9.87785C55.6146 9.86813 55.5482 9.86166 55.5093 9.85842C55.4704 9.85518 55.4429 9.85356 55.4267 9.85356C55.0801 9.85356 54.7741 9.97988 54.5085 10.2325C54.2429 10.4819 54.0761 10.6941 54.008 10.869V9.97016Z" fill="white"/>
<path d="M58.746 8.51749H57.8618V9.97016H57.1573V10.6844H57.8618V14.129C57.8618 14.4626 57.9346 14.7347 58.0804 14.9452C58.2262 15.1525 58.5031 15.2562 58.9112 15.2562C59.0375 15.2562 59.1541 15.2497 59.261 15.2367C59.3711 15.2238 59.4764 15.2027 59.5768 15.1736V14.4837C59.512 14.4901 59.4553 14.495 59.4068 14.4982H59.2707C59.112 14.4982 58.9986 14.4804 58.9306 14.4448C58.8076 14.3833 58.746 14.2618 58.746 14.0804V10.6844H59.5768V9.97016H58.746V8.51749Z" fill="white"/>
<path fill-rule="evenodd" clip-rule="evenodd" d="M61.9111 9.81958C61.9432 9.81958 61.9746 9.82057 62.0054 9.82249C62.6317 9.85204 63.1333 10.1079 63.554 10.59C64.0022 11.1035 64.1674 11.8216 64.1674 12.744C64.1674 13.4964 63.9629 14.1245 63.554 14.6282C63.1451 15.1287 62.5972 15.379 61.9102 15.379L61.8771 15.3788L61.8479 15.379C61.161 15.379 60.6131 15.1287 60.2042 14.6282C59.7953 14.1245 59.5908 13.4964 59.5908 12.744C59.5908 11.8216 59.756 11.1035 60.2042 10.59C60.6015 10.1347 61.1034 9.88119 61.682 9.82951C61.7446 9.82301 61.8105 9.8196 61.8803 9.8196L61.8942 9.81963L61.9111 9.81958ZM60.7684 11.4339C61.0082 10.8897 61.3419 10.6149 61.8948 10.6096C62.4482 10.6144 62.7498 10.8891 62.9897 11.4339C63.1468 11.7905 63.2253 12.2305 63.2253 12.7539C63.2253 13.2805 63.114 13.7238 62.8916 14.0836C62.675 14.4339 62.3375 14.6137 61.8791 14.623C61.4206 14.6137 61.0831 14.4339 60.8666 14.0836C60.6441 13.7238 60.5329 13.2805 60.5329 12.7539C60.5329 12.2305 60.6114 11.7905 60.7684 11.4339Z" fill="white"/>
<path fill-rule="evenodd" clip-rule="evenodd" d="M72.8563 9.82249C72.8256 9.82057 72.7942 9.81958 72.7621 9.81958L72.7452 9.81963L72.7312 9.8196C72.6614 9.8196 72.5955 9.82301 72.533 9.82951C71.9544 9.88119 71.4524 10.1347 71.0551 10.59C70.607 11.1035 70.4418 11.8216 70.4418 12.744C70.4418 13.4964 70.6462 14.1245 71.0551 14.6282C71.464 15.1287 72.0119 15.379 72.6989 15.379L72.728 15.3788L72.7612 15.379C73.4481 15.379 73.9961 15.1287 74.405 14.6282C74.8139 14.1245 75.0183 13.4964 75.0183 12.744C75.0183 11.8216 74.8531 11.1035 74.405 10.59C73.9843 10.1079 73.4826 9.85204 72.8563 9.82249ZM72.7458 10.6096C72.1929 10.6149 71.8591 10.8897 71.6194 11.4339C71.4624 11.7905 71.3839 12.2305 71.3839 12.7539C71.3839 13.2805 71.4951 13.7238 71.7175 14.0836C71.9341 14.4339 72.2716 14.6137 72.73 14.623C73.1885 14.6137 73.526 14.4339 73.7425 14.0836C73.965 13.7238 74.0762 13.2805 74.0762 12.7539C74.0762 12.2305 73.9977 11.7905 73.8407 11.4339C73.6007 10.8891 73.2991 10.6144 72.7458 10.6096Z" fill="white"/>
<path d="M16.6181 24.1841C20.1312 27.029 25.1554 27.029 28.6685 24.1841L27.3102 22.5067C24.5891 24.7102 20.6975 24.7102 17.9764 22.5067L16.6181 24.1841Z" fill="white"/>
<path d="M18.0812 20.4905V17.5746H20.2396V20.4905H18.0812Z" fill="white"/>
<path d="M24.7788 17.5746V20.4905H26.9372V17.5746H24.7788Z" fill="white"/>
<path fill-rule="evenodd" clip-rule="evenodd" d="M33.8888 21.4905C33.8888 27.928 28.6702 33.1466 22.2327 33.1466C15.7953 33.1466 10.5767 27.928 10.5767 21.4905C10.5767 15.0531 15.7953 9.83447 22.2327 9.83447C28.6702 9.83447 33.8888 15.0531 33.8888 21.4905ZM31.7304 21.4905C31.7304 26.7359 27.4781 30.9882 22.2327 30.9882C16.9873 30.9882 12.7351 26.7359 12.7351 21.4905C12.7351 16.2451 16.9873 11.9929 22.2327 11.9929C27.4781 11.9929 31.7304 16.2451 31.7304 21.4905Z" fill="white"/>
</svg>
