<svg width="132" height="42" viewBox="0 0 132 42" fill="none" xmlns="http://www.w3.org/2000/svg">
<path d="M1.00293 0.647156H116.146C124.155 0.647156 130.646 7.13903 130.646 15.1472V41.3211H15.5029C7.4948 41.3211 1.00293 34.8293 1.00293 26.8211V0.647156Z" fill="black" stroke="#ACACAC"/>
<path d="M104.171 24.2947L104.606 18.8968H102.229L102.664 24.2947H104.171Z" fill="white"/>
<path d="M99.0601 31.9618H101.542V18.8969H99.0601V31.9618Z" fill="white"/>
<path d="M105.305 19.055H110.889V21.2544H109.506V29.7889H110.889V31.9883H105.305V29.7889H106.869V21.2544H105.305V19.055Z" fill="white"/>
<path fill-rule="evenodd" clip-rule="evenodd" d="M118.964 19.055H115.965L111.432 31.9853H114.207L115.086 29.3273H119.765L120.584 31.9853H123.462L118.964 19.055ZM119.024 27.0992H115.801L117.439 22.0112L119.024 27.0992Z" fill="white"/>
<path d="M63.3492 29.8344C63.175 29.6454 63.0618 29.3263 63.0096 28.8772H60.4932C60.4932 29.8699 60.8473 30.6883 61.5555 31.3324C62.2695 31.9706 63.3724 32.2897 64.8643 32.2897C66.3271 32.2897 67.4068 31.9883 68.1034 31.3856C68.8058 30.7769 69.157 29.994 69.157 29.0367C69.157 28.3099 68.9132 27.7042 68.4255 27.2197C67.9321 26.7411 67.192 26.3836 66.2052 26.1472C64.7249 25.8163 63.8629 25.5829 63.6191 25.447C63.3753 25.317 63.2534 25.1072 63.2534 24.8177C63.2534 24.5872 63.3666 24.3863 63.593 24.2149C63.8252 24.0436 64.2112 23.9579 64.7511 23.9579C65.407 23.9579 65.8714 24.1293 66.1442 24.472C66.2894 24.6611 66.3793 24.9181 66.4142 25.2431H68.8957C68.7854 24.0613 68.3559 23.2311 67.6071 22.7524C66.864 22.2679 65.9004 22.0256 64.7162 22.0256C63.4682 22.0256 62.4988 22.3477 61.808 22.9918C61.123 23.6299 60.7805 24.3952 60.7805 25.2874C60.7805 26.0438 61.0011 26.6229 61.4423 27.0247C61.8834 27.4324 62.641 27.7722 63.7149 28.044C65.2067 28.4045 66.0688 28.6585 66.301 28.8063C66.5332 28.954 66.6492 29.1697 66.6492 29.4533C66.6492 29.7488 66.5041 29.9704 66.2139 30.1181C65.9294 30.2658 65.5434 30.3397 65.0558 30.3397C64.2257 30.3397 63.6568 30.1713 63.3492 29.8344Z" fill="white"/>
<path fill-rule="evenodd" clip-rule="evenodd" d="M55.7686 26.0852C56.2272 26.0261 56.5552 25.9522 56.7525 25.8636C57.1066 25.7099 57.2837 25.4706 57.2837 25.1456C57.2837 24.7497 57.1473 24.4779 56.8744 24.3302C56.6074 24.1765 56.2127 24.0997 55.6902 24.0997C55.1039 24.0997 54.6889 24.2474 54.4451 24.5429C54.2709 24.7615 54.1548 25.057 54.0968 25.4292H51.7023C51.7545 24.5843 51.9867 23.8899 52.3989 23.3463C53.0548 22.4954 54.181 22.07 55.7773 22.07C56.8164 22.07 57.7393 22.2797 58.5462 22.6993C59.3531 23.1188 59.7565 23.9106 59.7565 25.0747V29.5065C59.7565 29.8138 59.7623 30.186 59.774 30.6233C59.7914 30.9542 59.8407 31.1788 59.922 31.2969C60.0033 31.4151 60.1252 31.5126 60.2877 31.5894V31.9617H57.5884C57.513 31.7667 57.4607 31.5835 57.4317 31.4122C57.4027 31.2408 57.3794 31.0458 57.362 30.8272C57.0195 31.2053 56.6248 31.5274 56.1778 31.7933C55.6438 32.1065 55.0401 32.2631 54.3667 32.2631C53.5076 32.2631 52.7965 32.0149 52.2334 31.5185C51.6762 31.0163 51.3975 30.3072 51.3975 29.3913C51.3975 28.2035 51.8474 27.3438 52.7472 26.812C53.2406 26.5224 53.9662 26.3156 54.924 26.1915L55.7686 26.0852ZM57.275 27.264C57.1182 27.3645 56.9586 27.4472 56.7961 27.5122C56.6393 27.5713 56.4216 27.6274 56.143 27.6806L55.5857 27.787C55.0633 27.8815 54.6889 27.9967 54.4625 28.1326C54.0794 28.3631 53.8878 28.7206 53.8878 29.2051C53.8878 29.6365 54.0039 29.9497 54.2361 30.1447C54.4741 30.3338 54.7614 30.4283 55.0981 30.4283C55.6322 30.4283 56.1227 30.2688 56.5697 29.9497C57.0224 29.6306 57.2575 29.0485 57.275 28.2035V27.264Z" fill="white"/>
<path fill-rule="evenodd" clip-rule="evenodd" d="M47.1605 22.0877C48.2693 22.0877 49.2068 22.5043 49.973 23.3374C50.7451 24.1706 51.1311 25.3938 51.1311 27.007C51.1311 28.7088 50.7538 30.0058 49.9991 30.8981C49.2503 31.7903 48.2838 32.2365 47.0996 32.2365C46.345 32.2365 45.718 32.0444 45.2188 31.6603C44.946 31.4476 44.679 31.1374 44.4177 30.7297V35.7642H41.9623V22.3004H44.3394V23.7274C44.6064 23.3079 44.8908 22.977 45.1927 22.7347C45.7442 22.3034 46.4001 22.0877 47.1605 22.0877ZM48.5711 27.1311C48.5711 26.3865 48.4028 25.7277 48.0661 25.1545C47.7352 24.5813 47.1954 24.2947 46.4465 24.2947C45.5468 24.2947 44.9286 24.729 44.5919 25.5977C44.4177 26.0586 44.3307 26.6436 44.3307 27.3526C44.3307 28.4754 44.6238 29.2642 45.2101 29.7192C45.5584 29.9851 45.9705 30.1181 46.4465 30.1181C47.1373 30.1181 47.6627 29.8463 48.0226 29.3026C48.3883 28.759 48.5711 28.0351 48.5711 27.1311Z" fill="white"/>
<path fill-rule="evenodd" clip-rule="evenodd" d="M86.4427 25.8635C86.2453 25.9521 85.9174 26.026 85.4588 26.0851L84.6142 26.1914C83.6564 26.3155 82.9308 26.5224 82.4373 26.8119C81.5376 27.3437 81.0877 28.2035 81.0877 29.3912C81.0877 30.3071 81.3663 31.0162 81.9236 31.5185C82.4867 32.0148 83.1978 32.263 84.0569 32.263C84.7303 32.263 85.334 32.1064 85.868 31.7932C86.315 31.5273 86.7097 31.2053 87.0522 30.8271C87.0696 31.0457 87.0928 31.2407 87.1219 31.4121C87.1509 31.5835 87.2031 31.7666 87.2786 31.9616H89.9779V31.5894C89.8153 31.5126 89.6934 31.4151 89.6122 31.2969C89.5309 31.1787 89.4816 30.9541 89.4641 30.6232C89.4525 30.186 89.4467 29.8137 89.4467 29.5064V25.0746C89.4467 23.9106 89.0433 23.1187 88.2364 22.6992C87.4295 22.2797 86.5066 22.0699 85.4675 22.0699C83.8711 22.0699 82.745 22.4953 82.0891 23.3462C81.6769 23.8899 81.4447 24.5842 81.3925 25.4292H83.787C83.845 25.0569 83.9611 24.7615 84.1353 24.5428C84.3791 24.2474 84.7941 24.0996 85.3804 24.0996C85.9029 24.0996 86.2976 24.1765 86.5646 24.3301C86.8374 24.4778 86.9739 24.7496 86.9739 25.1455C86.9739 25.4705 86.7968 25.7099 86.4427 25.8635ZM86.4862 27.5121C86.6488 27.4471 86.8084 27.3644 86.9651 27.2639V28.2035C86.9477 29.0485 86.7126 29.6305 86.2598 29.9496C85.8129 30.2687 85.3224 30.4282 84.7883 30.4282C84.4516 30.4282 84.1643 30.3337 83.9263 30.1446C83.6941 29.9496 83.578 29.6364 83.578 29.2051C83.578 28.7205 83.7696 28.363 84.1527 28.1326C84.3791 27.9967 84.7535 27.8814 85.2759 27.7869L85.8332 27.6805C86.1118 27.6273 86.3295 27.5712 86.4862 27.5121Z" fill="white"/>
<path fill-rule="evenodd" clip-rule="evenodd" d="M79.6632 23.3374C78.8969 22.5042 77.9595 22.0876 76.8507 22.0876C76.0903 22.0876 75.4343 22.3033 74.8829 22.7347C74.581 22.9769 74.2966 23.3078 74.0296 23.7274V22.3003H71.6525V35.7641H74.1079V30.7296C74.3691 31.1373 74.6362 31.4476 74.909 31.6603C75.4082 32.0444 76.0351 32.2364 76.7898 32.2364C77.974 32.2364 78.9405 31.7903 79.6893 30.898C80.4439 30.0057 80.8213 28.7087 80.8213 27.0069C80.8213 25.3937 80.4352 24.1706 79.6632 23.3374ZM77.7563 25.1544C78.093 25.7276 78.2613 26.3864 78.2613 27.131C78.2613 28.0351 78.0785 28.7589 77.7128 29.3026C77.3529 29.8462 76.8275 30.118 76.1367 30.118C75.6607 30.118 75.2486 29.9851 74.9003 29.7192C74.314 29.2642 74.0209 28.4753 74.0209 27.3526C74.0209 26.6435 74.1079 26.0585 74.2821 25.5976C74.6188 24.729 75.237 24.2946 76.1367 24.2946C76.8856 24.2946 77.4254 24.5812 77.7563 25.1544Z" fill="white"/>
<path d="M95.9215 22.0699C95.9679 22.0699 96.0057 22.0728 96.0347 22.0787C96.0695 22.0787 96.1421 22.0817 96.2524 22.0876V24.6758C96.0956 24.658 95.9563 24.6462 95.8344 24.6403C95.7125 24.6344 95.6138 24.6315 95.5384 24.6315C94.5399 24.6315 93.8695 24.9624 93.527 25.6242C93.3354 25.9965 93.2396 26.5696 93.2396 27.3437V31.9616H90.7406V22.3003H93.109V23.9844C93.4921 23.3403 93.8259 22.9001 94.1104 22.6637C94.5748 22.2678 95.1785 22.0699 95.9215 22.0699Z" fill="white"/>
<path d="M44.4162 10.7193C44.7898 10.7193 45.1519 10.8077 45.5025 10.9847C45.8531 11.1583 46.1201 11.3844 46.3036 11.663C46.4806 11.9284 46.5985 12.238 46.6575 12.5919C46.7099 12.8344 46.7362 13.221 46.7362 13.7519H42.8778C42.8942 14.286 43.0203 14.7152 43.2563 15.0396C43.4922 15.3607 43.8576 15.5213 44.3523 15.5213C44.8144 15.5213 45.183 15.3689 45.4582 15.0642C45.6155 14.8872 45.7269 14.6825 45.7925 14.4498H46.6624C46.6395 14.6431 46.5625 14.8594 46.4314 15.0986C46.3036 15.3345 46.1595 15.5278 45.9989 15.6786C45.7302 15.9407 45.3976 16.1177 45.0011 16.2094C44.7881 16.2618 44.5473 16.288 44.2786 16.288C43.6233 16.288 43.0679 16.0505 42.6124 15.5754C42.1569 15.097 41.9292 14.4285 41.9292 13.57C41.9292 12.7246 42.1586 12.0381 42.6173 11.5106C43.0761 10.983 43.6757 10.7193 44.4162 10.7193ZM45.8269 13.049C45.7908 12.6656 45.7073 12.3593 45.5762 12.1299C45.3337 11.7039 44.929 11.4909 44.3622 11.4909C43.9559 11.4909 43.6151 11.6384 43.3398 11.9333C43.0646 12.2249 42.9188 12.5968 42.9024 13.049H45.8269ZM45.4386 8.71881L44.1262 10.1393H43.448L44.3474 8.71881H45.4386Z" fill="white"/>
<path d="M49.7566 10.6848C50.3497 10.6848 50.8313 10.829 51.2016 11.1174C51.5752 11.4057 51.7996 11.9022 51.875 12.6066H51.0148C50.9624 12.2823 50.8428 12.0136 50.656 11.8006C50.4693 11.5843 50.1694 11.4762 49.7566 11.4762C49.193 11.4762 48.7899 11.7514 48.5475 12.3019C48.3902 12.6591 48.3115 13.0998 48.3115 13.6241C48.3115 14.1516 48.423 14.5956 48.6458 14.9561C48.8686 15.3165 49.2192 15.4967 49.6976 15.4967C50.0646 15.4967 50.3546 15.3853 50.5676 15.1625C50.7838 14.9364 50.9329 14.6284 51.0148 14.2385H51.875C51.7767 14.9364 51.5309 15.4476 51.1377 15.772C50.7445 16.0931 50.2415 16.2536 49.6288 16.2536C48.9407 16.2536 48.3918 16.003 47.9822 15.5016C47.5726 14.997 47.3678 14.3679 47.3678 13.6142C47.3678 12.6902 47.5923 11.971 48.0412 11.4565C48.4901 10.9421 49.0619 10.6848 49.7566 10.6848Z" fill="white"/>
<path d="M52.6836 10.8372H53.5241V11.7465C53.5929 11.5696 53.7617 11.3549 54.0303 11.1026C54.299 10.847 54.6087 10.7193 54.9593 10.7193C54.9757 10.7193 55.0035 10.7209 55.0429 10.7242C55.0822 10.7274 55.1493 10.734 55.2444 10.7438V11.6777C55.1919 11.6679 55.1428 11.6613 55.0969 11.658C55.0543 11.6548 55.0068 11.6531 54.9544 11.6531C54.5087 11.6531 54.1663 11.7973 53.9271 12.0856C53.6879 12.3707 53.5683 12.7 53.5683 13.0736V16.1013H52.6836V10.8372Z" fill="white"/>
<path d="M55.9105 10.8618H56.8099V16.1013H55.9105V10.8618ZM55.9105 8.88101H56.8099V9.88369H55.9105V8.88101Z" fill="white"/>
<path d="M58.228 9.3676H59.1226V10.8372H59.9631V11.5597H59.1226V14.9954C59.1226 15.1789 59.1848 15.3018 59.3094 15.364C59.3782 15.4001 59.4928 15.4181 59.6534 15.4181C59.696 15.4181 59.7419 15.4181 59.791 15.4181C59.8402 15.4148 59.8975 15.4099 59.9631 15.4033V16.1013C59.8615 16.1308 59.755 16.1521 59.6436 16.1652C59.5354 16.1783 59.4175 16.1848 59.2897 16.1848C58.8768 16.1848 58.5967 16.08 58.4492 15.8703C58.3018 15.6573 58.228 15.382 58.228 15.0445V11.5597H57.5153V10.8372H58.228V9.3676Z" fill="white"/>
<path d="M65.6746 15.5066C66.0875 15.5066 66.4299 15.3345 66.7018 14.9905C66.9771 14.6431 67.1147 14.1254 67.1147 13.4373C67.1147 13.0179 67.0541 12.6574 66.9329 12.356C66.7035 11.776 66.2841 11.486 65.6746 11.486C65.0618 11.486 64.6424 11.7924 64.4163 12.4051C64.2951 12.7328 64.2345 13.1489 64.2345 13.6536C64.2345 14.0599 64.2951 14.4056 64.4163 14.6906C64.6457 15.2346 65.0651 15.5066 65.6746 15.5066ZM63.3842 10.8618H64.2443V11.5597C64.4212 11.3205 64.6146 11.1354 64.8243 11.0043C65.1225 10.8077 65.4731 10.7094 65.8761 10.7094C66.4725 10.7094 66.9787 10.9388 67.3949 11.3975C67.811 11.853 68.0191 12.5051 68.0191 13.3537C68.0191 14.5006 67.7193 15.3198 67.1196 15.8113C66.7395 16.1226 66.2972 16.2782 65.7926 16.2782C65.3961 16.2782 65.0635 16.1914 64.7948 16.0177C64.6375 15.9194 64.4622 15.7507 64.2689 15.5115V18.2H63.3842V10.8618Z" fill="white"/>
<path d="M69.6338 14.7005C69.6338 14.9561 69.7272 15.1576 69.914 15.305C70.1007 15.4525 70.3219 15.5262 70.5775 15.5262C70.8888 15.5262 71.1902 15.4541 71.4819 15.3099C71.9734 15.0707 72.2191 14.6792 72.2191 14.1352V13.4226C72.111 13.4914 71.9717 13.5487 71.8013 13.5946C71.631 13.6405 71.4638 13.6732 71.3 13.6929L70.7643 13.7617C70.4431 13.8043 70.2023 13.8715 70.0417 13.9632C69.7698 14.1172 69.6338 14.363 69.6338 14.7005ZM71.7768 12.9114C71.9799 12.8852 72.1159 12.8 72.1847 12.6558C72.224 12.5772 72.2437 12.4641 72.2437 12.3167C72.2437 12.0152 72.1356 11.7973 71.9193 11.663C71.7063 11.5253 71.4 11.4565 71.0002 11.4565C70.5382 11.4565 70.2105 11.581 70.0172 11.8301C69.909 11.9677 69.8386 12.1725 69.8058 12.4444H68.9801C68.9965 11.7957 69.2062 11.3451 69.6092 11.0928C70.0155 10.8372 70.4857 10.7094 71.0198 10.7094C71.6392 10.7094 72.1421 10.8274 72.5288 11.0633C72.9122 11.2992 73.1038 11.6662 73.1038 12.1643V15.1969C73.1038 15.2886 73.1219 15.3624 73.1579 15.4181C73.1972 15.4738 73.2775 15.5016 73.3988 15.5016C73.4381 15.5016 73.4823 15.5 73.5315 15.4967C73.5806 15.4902 73.633 15.482 73.6887 15.4721V16.1259C73.5511 16.1652 73.4463 16.1897 73.3742 16.1996C73.3021 16.2094 73.2038 16.2143 73.0793 16.2143C72.7745 16.2143 72.5534 16.1062 72.4157 15.8899C72.3436 15.7752 72.2929 15.613 72.2634 15.4033C72.0831 15.6393 71.8243 15.8441 71.4868 16.0177C71.1493 16.1914 70.7774 16.2782 70.3711 16.2782C69.8828 16.2782 69.4831 16.1308 69.1718 15.8359C68.8638 15.5377 68.7098 15.1658 68.7098 14.7201C68.7098 14.2319 68.8621 13.8534 69.1669 13.5848C69.4716 13.3161 69.8714 13.1506 70.3661 13.0883L71.7768 12.9114Z" fill="white"/>
<path d="M74.4826 10.8372H75.3231V11.7465C75.3919 11.5696 75.5607 11.3549 75.8294 11.1026C76.0981 10.847 76.4077 10.7193 76.7583 10.7193C76.7747 10.7193 76.8026 10.7209 76.8419 10.7242C76.8812 10.7274 76.9484 10.734 77.0434 10.7438V11.6777C76.991 11.6679 76.9418 11.6613 76.8959 11.658C76.8533 11.6548 76.8058 11.6531 76.7534 11.6531C76.3078 11.6531 75.9653 11.7973 75.7261 12.0856C75.4869 12.3707 75.3673 12.7 75.3673 13.0736V16.1013H74.4826V10.8372Z" fill="white"/>
<path d="M80.435 8.88101H81.3197V16.1013H80.435V8.88101Z" fill="white"/>
<path d="M83.5636 8.88101L83.4014 11.7711H82.8312L82.669 8.88101H83.5636Z" fill="white"/>
<path d="M84.3771 8.85643H85.2618V11.5499C85.4715 11.2845 85.6599 11.0977 85.827 10.9896C86.1121 10.8028 86.4676 10.7094 86.8936 10.7094C87.6571 10.7094 88.1748 10.9765 88.4468 11.5106C88.5942 11.8022 88.668 12.2069 88.668 12.7246V16.1013H87.7587V12.7836C87.7587 12.3969 87.7095 12.1135 87.6112 11.9333C87.4507 11.6449 87.1492 11.5008 86.7069 11.5008C86.3399 11.5008 86.0073 11.6269 85.7091 11.8792C85.4109 12.1315 85.2618 12.6083 85.2618 13.3095V16.1013H84.3771V8.85643Z" fill="white"/>
<path d="M91.9686 15.5311C92.5551 15.5311 92.9565 15.3099 93.1728 14.8676C93.3923 14.422 93.5021 13.9272 93.5021 13.3832C93.5021 12.8917 93.4234 12.492 93.2661 12.1839C93.0171 11.699 92.5879 11.4565 91.9784 11.4565C91.4377 11.4565 91.0445 11.663 90.7988 12.0758C90.553 12.4887 90.4301 12.9867 90.4301 13.57C90.4301 14.1303 90.553 14.5973 90.7988 14.9708C91.0445 15.3444 91.4344 15.5311 91.9686 15.5311ZM92.003 10.6848C92.6812 10.6848 93.2547 10.9109 93.7232 11.3631C94.1918 11.8153 94.4261 12.4805 94.4261 13.3587C94.4261 14.2073 94.2197 14.9085 93.8068 15.4623C93.3939 16.0161 92.7533 16.293 91.885 16.293C91.1608 16.293 90.5858 16.0488 90.1598 15.5606C89.7338 15.0691 89.5208 14.4105 89.5208 13.5848C89.5208 12.7 89.7453 11.9955 90.1942 11.4713C90.6431 10.947 91.246 10.6848 92.003 10.6848Z" fill="white"/>
<path d="M95.3822 10.8372H96.2571V11.5843C96.4668 11.3254 96.6568 11.137 96.8272 11.0191C97.1188 10.8192 97.4498 10.7193 97.8201 10.7193C98.2395 10.7193 98.577 10.8225 98.8326 11.0289C98.9768 11.1469 99.1078 11.3205 99.2258 11.5499C99.4224 11.2681 99.6534 11.06 99.9188 10.9257C100.184 10.7881 100.482 10.7193 100.813 10.7193C101.521 10.7193 102.003 10.9748 102.258 11.486C102.396 11.7613 102.465 12.1315 102.465 12.5968V16.1013H101.546V12.4444C101.546 12.0938 101.457 11.853 101.28 11.7219C101.107 11.5909 100.894 11.5253 100.641 11.5253C100.294 11.5253 99.9942 11.6417 99.7419 11.8743C99.4928 12.1069 99.3683 12.4952 99.3683 13.0392V16.1013H98.4689V12.6656C98.4689 12.3085 98.4263 12.048 98.3411 11.8841C98.2067 11.6384 97.9561 11.5155 97.5891 11.5155C97.2548 11.5155 96.9501 11.6449 96.6749 11.9038C96.4029 12.1627 96.2669 12.6312 96.2669 13.3095V16.1013H95.3822V10.8372Z" fill="white"/>
<path d="M103.667 10.8372H104.542V11.5843C104.751 11.3254 104.941 11.137 105.112 11.0191C105.403 10.8192 105.734 10.7193 106.105 10.7193C106.524 10.7193 106.861 10.8225 107.117 11.0289C107.261 11.1469 107.392 11.3205 107.51 11.5499C107.707 11.2681 107.938 11.06 108.203 10.9257C108.469 10.7881 108.767 10.7193 109.098 10.7193C109.806 10.7193 110.287 10.9748 110.543 11.486C110.68 11.7613 110.749 12.1315 110.749 12.5968V16.1013H109.83V12.4444C109.83 12.0938 109.742 11.853 109.565 11.7219C109.391 11.5909 109.178 11.5253 108.926 11.5253C108.578 11.5253 108.279 11.6417 108.026 11.8743C107.777 12.1069 107.653 12.4952 107.653 13.0392V16.1013H106.753V12.6656C106.753 12.3085 106.711 12.048 106.626 11.8841C106.491 11.6384 106.241 11.5155 105.874 11.5155C105.539 11.5155 105.235 11.6449 104.959 11.9038C104.687 12.1627 104.551 12.6312 104.551 13.3095V16.1013H103.667V10.8372Z" fill="white"/>
<path d="M114.143 10.7193C114.517 10.7193 114.879 10.8077 115.23 10.9847C115.58 11.1583 115.847 11.3844 116.031 11.663C116.208 11.9284 116.326 12.238 116.385 12.5919C116.437 12.8344 116.463 13.221 116.463 13.7519H112.605C112.621 14.286 112.747 14.7152 112.983 15.0396C113.219 15.3607 113.585 15.5213 114.079 15.5213C114.541 15.5213 114.91 15.3689 115.185 15.0642C115.343 14.8872 115.454 14.6825 115.52 14.4498H116.389C116.367 14.6431 116.29 14.8594 116.158 15.0986C116.031 15.3345 115.886 15.5278 115.726 15.6786C115.457 15.9407 115.125 16.1177 114.728 16.2094C114.515 16.2618 114.274 16.288 114.006 16.288C113.35 16.288 112.795 16.0505 112.339 15.5754C111.884 15.097 111.656 14.4285 111.656 13.57C111.656 12.7246 111.886 12.0381 112.344 11.5106C112.803 10.983 113.403 10.7193 114.143 10.7193ZM115.554 13.049C115.518 12.6656 115.434 12.3593 115.303 12.1299C115.061 11.7039 114.656 11.4909 114.089 11.4909C113.683 11.4909 113.342 11.6384 113.067 11.9333C112.792 12.2249 112.646 12.5968 112.629 13.049H115.554Z" fill="white"/>
<path d="M18.4775 24.0165C21.9906 26.8613 27.0148 26.8613 30.5279 24.0165L29.1696 22.3391C26.4485 24.5426 22.5569 24.5426 19.8358 22.3391L18.4775 24.0165Z" fill="white"/>
<path d="M19.9405 20.3229V17.407H22.099V20.3229H19.9405Z" fill="white"/>
<path d="M26.6382 17.407V20.3229H28.7966V17.407H26.6382Z" fill="white"/>
<path fill-rule="evenodd" clip-rule="evenodd" d="M35.7481 21.3229C35.7481 27.7604 30.5296 32.979 24.0921 32.979C17.6546 32.979 12.436 27.7604 12.436 21.3229C12.436 14.8855 17.6546 9.66687 24.0921 9.66687C30.5296 9.66687 35.7481 14.8855 35.7481 21.3229ZM33.5897 21.3229C33.5897 26.5683 29.3375 30.8206 24.0921 30.8206C18.8467 30.8206 14.5945 26.5683 14.5945 21.3229C14.5945 16.0775 18.8467 11.8253 24.0921 11.8253C29.3375 11.8253 33.5897 16.0775 33.5897 21.3229Z" fill="white"/>
</svg>
